<svg width="459" height="427" viewBox="0 0 459 427" fill="none" xmlns="http://www.w3.org/2000/svg">
<g opacity="0.8">
<g opacity="0.8">
<path opacity="0.6" d="M225.111 286.411L224.636 427L79.3289 356.361L79.8041 215.772L225.111 286.411Z" fill="url(#paint0_linear_306_6262)"/>
<path opacity="0.4" d="M224.996 328.969L79.6624 257.717L79.8045 215.772L225.111 286.411L224.996 328.969Z" fill="#E0C4A3"/>
<path opacity="0.6" fill-rule="evenodd" clip-rule="evenodd" d="M224.636 140.866L375.748 212.743L331.88 234.196L225.111 286.411L74.1011 213.016L181.954 161.324L181.954 161.324L224.636 140.866Z" fill="url(#paint1_linear_306_6262)"/>
<path opacity="0.6" fill-rule="evenodd" clip-rule="evenodd" d="M225.111 286.411L370.067 215.48L369.591 356.07L331.422 374.747L331.769 268.69L224.995 320.906L225.111 286.411ZM225.111 286.411L224.995 320.906L331.769 268.691L331.422 374.748L224.635 427.001L225.111 286.411Z" fill="url(#paint2_linear_306_6262)"/>
<g style="mix-blend-mode:multiply" opacity="0.4">
<path d="M224.995 328.969L225.111 286.411L370.067 215.48V257.803L224.995 328.969Z" fill="#FABA7B"/>
</g>
<path fill-rule="evenodd" clip-rule="evenodd" d="M331.88 234.196L375.747 212.743L375.632 247.238L331.769 268.691V268.691L224.995 320.906L225.111 286.411L331.88 234.196V234.196Z" fill="url(#paint3_linear_306_6262)"/>
<g style="mix-blend-mode:multiply">
<path d="M225.111 286.411L224.995 320.905L73.981 248.501L74.1009 213.016L225.111 286.411Z" fill="url(#paint4_linear_306_6262)"/>
</g>
</g>
<path d="M0 101.004H459L375.473 213.228L225.125 286.829L74.7764 213.592L0 101.004Z" fill="url(#paint5_linear_306_6262)"/>
<path d="M168.86 199.96C196.244 212.866 223.623 225.773 250.996 238.68C257.256 241.626 263.624 244.615 272.595 243.566C272.669 242.562 272.45 241.557 271.961 240.645C270.381 237.821 267.027 236.154 263.868 234.661C233.809 220.434 203.75 206.204 173.689 191.971C170.807 190.61 167.867 189.224 164.643 188.712C164.379 188.67 164.106 188.628 163.83 188.603C162.713 189.334 161.911 190.372 161.553 191.549C160.589 195.248 165.033 198.159 168.852 199.96H168.86Z" fill="#FFAD57"/>
<path d="M271.835 242.968C263.43 243.77 257.295 240.884 251.348 238.087L169.216 199.367C165.591 197.66 161.451 194.943 162.299 191.693C162.586 190.755 163.2 189.918 164.057 189.299L164.501 189.363C167.608 189.86 170.51 191.229 173.322 192.553C202.155 206.207 230.989 219.858 259.822 233.506L263.493 235.245C266.907 236.859 269.846 238.402 271.263 240.936C271.611 241.573 271.805 242.265 271.832 242.97L271.835 242.968ZM268.964 244.443C270.212 244.442 271.458 244.369 272.695 244.222C272.871 244.202 273.034 244.129 273.155 244.015C273.276 243.901 273.348 243.754 273.358 243.599C273.442 242.481 273.198 241.363 272.649 240.35C271.033 237.458 267.883 235.796 264.232 234.07L260.562 232.331C231.728 218.683 202.895 205.033 174.062 191.38C171.148 190.004 168.135 188.581 164.785 188.049C164.501 188.004 164.216 187.962 163.915 187.935C163.814 187.924 163.711 187.932 163.613 187.956C163.516 187.981 163.425 188.023 163.346 188.079C162.096 188.903 161.202 190.072 160.81 191.395C159.971 194.625 162.626 197.779 168.493 200.542C195.877 213.449 223.256 226.357 250.629 239.264C256.052 241.815 261.632 244.443 268.961 244.443H268.964Z" fill="#FEBB73"/>
<path d="M163.83 188.603C164.114 188.628 164.379 188.67 164.643 188.712C167.867 189.224 170.807 190.61 173.689 191.971C203.75 206.214 233.809 220.443 263.868 234.661C267.027 236.151 270.381 237.821 271.961 240.645C272.45 241.557 272.669 242.561 272.595 243.566C273.19 243.507 273.796 243.425 274.419 243.318C278.078 243.641 280.355 239.343 278.972 236.362C277.589 233.381 274.112 231.643 270.888 230.1L189.128 191.298C181.875 187.848 173.151 184.343 165.742 187.535C165.059 187.823 164.417 188.179 163.83 188.598V188.603Z" fill="#DF7907"/>
<path d="M274.419 242.65C274.369 242.651 274.32 242.655 274.271 242.663C273.958 242.717 273.656 242.765 273.358 242.804C273.308 241.955 273.068 241.123 272.649 240.355C271.033 237.463 267.883 235.802 264.232 234.075L260.562 232.336C231.728 218.688 202.895 205.038 174.061 191.386C171.452 190.144 168.766 188.884 165.833 188.251L166.083 188.139C172.912 185.203 181.024 188.206 188.767 191.89L270.524 230.684C273.89 232.287 277.017 233.948 278.263 236.614C278.946 238.074 278.624 240.029 277.478 241.368C277.017 241.905 276.015 242.784 274.501 242.655H274.425L274.419 242.65ZM272.595 244.233H272.677C273.247 244.175 273.844 244.098 274.459 243.984C276.072 244.094 277.611 243.428 278.698 242.161C280.169 240.439 280.562 238.005 279.674 236.102C278.235 233.029 274.868 231.228 271.249 229.504L189.492 190.71C181.388 186.855 172.861 183.727 165.403 186.934C164.665 187.244 163.973 187.63 163.34 188.084C163.224 188.169 163.14 188.281 163.097 188.407C163.054 188.533 163.055 188.667 163.099 188.792C163.143 188.918 163.228 189.03 163.345 189.113C163.461 189.197 163.603 189.248 163.753 189.262C163.997 189.284 164.25 189.321 164.509 189.361C167.617 189.858 170.519 191.227 173.33 192.551C202.164 206.205 230.997 219.856 259.831 233.504L263.501 235.243C266.916 236.857 269.855 238.4 271.272 240.934C271.71 241.74 271.906 242.631 271.841 243.522C271.835 243.613 271.85 243.704 271.886 243.79C271.921 243.875 271.977 243.954 272.049 244.02C272.12 244.086 272.207 244.138 272.303 244.174C272.399 244.21 272.502 244.228 272.606 244.228L272.595 244.233Z" fill="#E59233"/>
<path d="M252.698 172.856C250.914 173.778 248.996 174.416 247.015 174.746L230.419 183.351C232.401 183.02 234.318 182.381 236.102 181.459L252.698 172.856Z" fill="#FFE200"/>
<path d="M236.074 181.467L252.673 172.862C259.94 169.094 264.744 160.56 265.372 148.154C266.621 123.505 250.956 92.7324 230.23 78.8383L213.634 87.441C234.364 101.338 250.025 132.11 248.775 156.757C248.147 169.173 243.344 177.699 236.074 181.467V181.467Z" fill="#FBC500"/>
<path d="M203.207 75.2898L186.611 83.895C193.771 80.1805 203.323 81.088 213.636 87.4382L230.232 78.8354C219.919 72.4828 210.366 71.5777 203.207 75.2898Z" fill="#FBC500"/>
<path d="M177.781 66.8678C187.678 61.732 200.987 63.1657 215.301 72.3753C243.761 90.6723 265.445 132.763 263.74 166.379C262.892 183.079 256.441 194.543 246.658 199.612L263.257 191.014C273.03 185.945 279.491 174.474 280.339 157.774C282.041 124.166 260.357 82.0745 231.9 63.7704C217.583 54.5607 204.277 53.1271 194.38 58.2629L177.781 66.8678Z" fill="#D04A25"/>
<path d="M208.449 55.9878C215.621 56.3334 223.483 59.1431 231.543 64.3177C259.776 82.4869 281.372 124.389 279.679 157.741C278.872 173.648 272.929 185.258 262.949 190.433L253.65 195.253C260.005 188.843 263.751 178.904 264.385 166.416C266.098 132.64 244.233 90.2068 215.646 71.8285C204.893 64.9101 194.433 62.1333 185.389 63.6567L194.673 58.8414C198.819 56.6906 203.466 55.7477 208.444 55.9876L208.449 55.9878ZM246.626 200.272C246.741 200.277 246.855 200.251 246.956 200.198L263.554 191.598C273.966 186.2 280.156 174.201 280.988 157.813C282.699 124.045 260.837 81.6119 232.249 63.2262C218.187 54.1794 204.63 52.2135 194.076 57.6897L177.5 66.2859L177.477 66.297C177.33 66.3799 177.22 66.517 177.171 66.6793C177.123 66.8417 177.139 67.0166 177.217 67.167C177.295 67.3175 177.429 67.4318 177.589 67.4858C177.75 67.5398 177.925 67.5292 178.078 67.4563L178.103 67.4429C188.22 62.2083 201.304 64.1562 214.946 72.9324C243.182 91.0848 264.778 132.994 263.084 166.355C262.277 182.26 256.337 193.868 246.355 199.038C246.229 199.105 246.129 199.212 246.069 199.341C246.009 199.471 245.994 199.616 246.025 199.756C246.055 199.895 246.131 200.02 246.24 200.112C246.348 200.205 246.484 200.259 246.627 200.267L246.626 200.272Z" fill="#D04A25"/>
<path d="M209.05 177.921C188.319 164.039 172.661 133.252 173.911 108.603C175.161 83.9543 192.858 74.6439 213.636 87.4417C234.366 101.338 250.027 132.111 248.777 156.757C247.528 181.403 229.83 190.721 209.05 177.921V177.921ZM215.3 72.3756C186.845 54.0741 162.398 66.4892 160.693 100.103C158.988 133.716 180.674 175.802 209.131 194.106C237.589 212.41 262.036 199.998 263.739 166.379C265.442 132.761 243.755 90.6771 215.3 72.3756Z" fill="#E0ECF8"/>
<path d="M197.059 82.3817C202.109 82.625 207.633 84.5125 213.293 88.0012C233.717 101.693 249.354 132.521 248.125 156.726C247.533 168.435 243.178 177.001 235.865 180.844C228.618 184.649 219.222 183.418 209.402 177.381C188.955 163.666 173.336 132.83 174.568 108.637C175.163 96.9299 179.516 88.3645 186.828 84.5237C189.9 82.9095 193.338 82.2024 197.059 82.3817ZM225.57 184.29C229.509 184.48 233.189 183.724 236.472 181.998C244.203 177.932 248.813 168.981 249.43 156.793C250.039 144.773 246.7 130.917 240.03 117.776C233.36 104.635 224.125 93.691 214 86.9025C203.748 80.5868 193.888 79.3387 186.209 83.3757C178.478 87.4418 173.87 96.3936 173.253 108.581C172.644 120.599 175.983 134.457 182.653 147.598C189.323 160.74 198.562 171.664 208.686 178.472L208.707 178.485C214.561 182.093 220.296 184.044 225.569 184.298L225.57 184.29ZM215.3 72.378L214.948 72.9274C243.181 91.087 264.776 132.996 263.086 166.348C262.279 182.309 256.304 193.934 246.264 199.082C236.152 204.271 223.091 202.307 209.484 193.557C181.25 175.397 159.655 133.488 161.346 100.136C162.155 84.1784 168.131 72.5506 178.17 67.4022C188.282 62.2159 201.343 64.1774 214.948 72.9274L215.3 72.378V72.378ZM232.528 203.199C237.694 203.448 242.531 202.466 246.863 200.244C257.331 194.873 263.561 182.856 264.393 166.413C266.104 132.645 244.242 90.2143 215.657 71.8288C201.642 62.8135 188.119 60.8298 177.576 66.2384C167.108 71.6116 160.878 83.6259 160.046 100.069C158.333 133.84 180.197 176.27 208.782 194.656C217.037 199.964 225.122 202.835 232.528 203.192L232.528 203.199Z" fill="#D04A25"/>
<path d="M171.819 107.993C170.567 132.637 186.235 163.415 206.958 177.307C210.8 179.68 214.533 181.286 218.079 182.184C214.908 181.128 211.874 179.696 209.044 177.918C188.313 164.036 172.656 133.248 173.905 108.604C174.921 88.4774 186.905 78.5779 202.577 82.5855C185.885 77.1141 172.875 86.9884 171.812 107.993L171.819 107.993Z" fill="#D04A25"/>
<path d="M187.656 82.6766C186.259 83.2735 184.935 84.0303 183.712 84.9319C177.51 89.4947 173.8 97.8943 173.26 108.571C172.651 120.589 175.99 134.445 182.662 147.589C184.668 151.55 186.947 155.367 189.482 159.012C178.564 143.913 171.637 124.442 172.471 108.028C173.007 97.4332 176.709 89.2714 182.894 85.0164C184.359 84.0093 185.964 83.2211 187.656 82.6766V82.6766ZM218.047 182.832C218.206 182.84 218.362 182.791 218.487 182.692C218.611 182.593 218.696 182.453 218.724 182.297C218.752 182.14 218.723 181.979 218.641 181.843C218.559 181.707 218.43 181.605 218.279 181.557C215.161 180.516 212.178 179.107 209.394 177.359C188.973 163.664 173.339 132.839 174.562 108.632C175.083 98.3548 178.6 90.3081 184.486 85.978C189.335 82.4098 195.536 81.4519 202.422 83.213C202.587 83.2552 202.761 83.2317 202.908 83.1476C203.056 83.0636 203.165 82.9255 203.212 82.7626C203.259 82.5997 203.241 82.4247 203.162 82.2748C203.082 82.1248 202.948 82.0116 202.786 81.9592C194.925 79.3927 187.803 80.0681 182.155 83.9356C175.62 88.4143 171.725 96.9485 171.167 107.957C170.555 119.975 173.894 133.834 180.564 146.975C187.234 160.117 196.469 171.06 206.594 177.849C210.441 180.222 214.244 181.886 217.917 182.814C217.96 182.825 218.003 182.832 218.047 182.835L218.047 182.832Z" fill="#F3725A"/>
<ellipse rx="43.0203" ry="74.348" transform="matrix(0.891246 -0.453175 0.453769 0.891295 212.248 133.364)" fill="#ED6C53"/>
<ellipse rx="43.0203" ry="74.348" transform="matrix(0.891246 -0.453175 0.453769 0.891295 212.248 133.364)" fill="#F3725A"/>
<path d="M174.789 71.4386C155.307 86.2581 156.223 124.319 173.027 156.245C188.669 185.961 215.782 205.827 237.074 201.967C261.794 197.471 272.32 162.763 255.414 121.863C236.768 76.8348 197.955 53.7983 174.789 71.4386Z" fill="#ED6C53"/>
<path d="M174.789 71.4386C155.307 86.2581 156.223 124.319 173.027 156.245C188.669 185.961 215.782 205.827 237.074 201.967C261.794 197.471 272.32 162.763 255.414 121.863C236.768 76.8348 197.955 53.7983 174.789 71.4386Z" fill="#F3725A"/>
<path d="M175.036 71.4465C155.193 86.2476 156.162 124.309 173.319 156.249C189.289 185.98 216.942 205.87 238.639 202.03C263.831 197.558 274.527 162.86 257.258 121.945C238.212 76.9003 198.631 53.8281 175.036 71.4465Z" fill="url(#paint6_linear_306_6262)"/>
<path d="M174.013 76.325C156.612 90.7425 158.625 126.67 175.247 156.465C190.793 184.336 216.594 202.129 235.903 197.243C258.082 191.64 265.808 158.198 248.743 120.589C230.106 79.5563 194.407 59.4376 174.013 76.325Z" fill="url(#paint7_linear_306_6262)"/>
<path d="M210.174 166.256C214.702 165.583 219.002 163.836 222.714 161.162C226.151 158.841 229.135 155.915 231.522 152.525C229.898 157.153 226.614 161.99 220.959 166.153C219.672 166.715 218.341 167.168 216.979 167.509C216.198 167.7 215.405 167.845 214.606 167.943C214.086 168.006 213.568 168.044 213.07 168.059C210.855 168.185 208.652 167.642 206.749 166.501L206.551 166.37C207.748 166.471 208.953 166.453 210.146 166.315L210.174 166.256ZM231.214 159.109C233.818 154.959 235.172 150.147 235.114 145.248C236.237 141.785 236.546 138.109 236.015 134.507C235.589 131.958 234.779 129.487 233.613 127.18C236.287 130.513 238.094 134.455 238.873 138.655C239.773 144.316 238.039 152.251 231.214 159.109ZM208.319 171.636C207.789 171.702 207.256 171.741 206.722 171.75C204.521 171.876 202.332 171.339 200.44 170.209C198.134 168.714 195.869 165.694 193.692 161.061C191.053 155.109 188.969 148.926 187.466 142.592C185.821 136.554 184.655 130.396 183.98 124.176C184.576 127.405 185.374 130.982 186.396 134.925C187.967 141.607 190.194 148.12 193.045 154.366C195.426 159.285 198 162.701 200.773 164.5C201.041 164.665 201.306 164.822 201.588 164.975L201.837 165.102L201.965 165.164C202.077 165.231 202.194 165.279 202.314 165.343C203.334 166.662 204.558 167.809 205.94 168.741C207.945 169.98 210.25 170.646 212.606 170.669C211.218 171.155 209.78 171.49 208.32 171.67L208.319 171.636ZM198.699 159.529C196.888 157.145 195.389 154.54 194.241 151.776C191.908 146.225 190.028 140.495 188.617 134.642C186.323 125.713 185.127 118.769 184.962 113.682C185.206 113.211 185.514 112.777 185.877 112.392C186.174 112.079 186.517 111.813 186.895 111.604C187.335 111.356 187.802 111.161 188.287 111.023C187.675 113.663 187.616 117.138 188.077 121.458C188.821 127.395 189.975 133.274 191.533 139.052C193.734 147.615 196.104 154.449 198.681 159.49L198.699 159.529ZM209.454 163.655C207.411 163.942 205.328 163.75 203.371 163.092C199.954 158.516 196.721 150.415 193.759 138.82C192.159 132.899 191.005 126.867 190.308 120.775C189.871 116.146 190.122 112.777 191.007 110.561C195.58 110.403 202.157 112.285 209.159 115.987C214.648 118.854 219.659 122.557 224.01 126.963C228.371 131.471 231.648 136.679 232.532 142.241C232.615 142.565 232.66 142.908 232.667 143.27C232.697 143.591 232.724 143.93 232.736 144.282C231.078 149.213 227.552 154.423 221.202 158.816C218.286 160.9 215.003 162.417 211.524 163.29C210.841 163.446 210.15 163.568 209.454 163.655ZM233.981 138.513C232.276 133.396 228.919 128.683 224.843 124.613C220.429 120.276 215.403 116.607 209.927 113.723C203.74 110.461 197.773 108.562 193.013 108.162C193.49 107.845 194.009 107.598 194.556 107.43C195.123 107.26 195.703 107.14 196.291 107.073C201.001 106.508 208.216 108.477 215.625 112.386C218.281 113.786 220.83 115.377 223.254 117.148C228.583 122.056 232.78 128.016 233.808 134.405C234.029 135.775 234.096 137.165 234.007 138.55L233.981 138.513ZM185.23 109.504C185.498 107.178 186.183 105.532 187.159 104.512C188.247 103.501 189.656 102.905 191.14 102.828C194.5 102.427 199.144 103.323 204.252 105.313C202.257 104.794 200.214 104.484 198.155 104.39C197.296 104.356 196.435 104.385 195.581 104.477C193.71 104.591 191.938 105.35 190.567 106.625C190.142 107.076 189.777 107.579 189.48 108.123L189.302 108.168C187.871 108.297 186.489 108.754 185.265 109.504L185.23 109.504ZM190.404 100.3C188.538 100.418 186.77 101.176 185.399 102.445C183.518 104.388 182.649 107.777 182.739 112.641C181.663 115.192 181.327 118.903 181.757 123.845C182.446 130.233 183.64 136.558 185.328 142.759C186.914 149.44 189.144 155.953 191.987 162.206C194.369 167.133 196.94 170.533 199.715 172.34C202.54 174.016 205.86 174.656 209.104 174.151C213.631 173.472 217.93 171.723 221.642 169.049C221.778 168.971 221.899 168.871 222.025 168.787L222.371 168.517L222.428 168.502C224.366 167.637 226.214 166.584 227.948 165.36C239.598 157.31 242.489 146.328 241.264 138.597C239.768 129.204 232.393 120.917 224.275 115.027C220.258 111.429 215.803 108.351 211.016 105.866C206.164 103.189 200.892 101.355 195.427 100.442C193.737 100.192 192.024 100.154 190.325 100.329" fill="white"/>
<g opacity="0.2" clip-path="url(#clip0_306_6262)" filter="url(#filter0_f_306_6262)">
<path d="M110.521 75.8743C122.505 70.5547 132.774 54.4229 133.475 39.8393C133.823 32.5404 131.707 27.0476 127.982 23.9835L124.094 20.8216L124.525 22.056C121.272 20.9204 117.348 21.1687 113.041 23.0807C101.057 28.4002 90.7699 44.5234 90.0808 59.1015C89.7057 63.248 90.583 67.5557 92.5816 71.3811L91.5935 71.718L95.5431 74.9202L95.6987 75.0378C99.392 77.9295 104.597 78.4363 110.496 75.8176L110.521 75.8743Z" fill="#D96C4B"/>
<path d="M106.521 72.6827C94.537 78.0022 85.3852 70.5076 86.0866 55.924C86.7881 41.3404 97.0625 25.2228 109.034 19.9087C121.006 14.5946 130.17 22.0838 129.468 36.6674C128.767 51.251 118.493 67.3686 106.521 72.6827Z" fill="#FFDBB9"/>
<path d="M124.879 28.7022C124.165 27.0407 123.079 25.5724 121.732 24.4476C118.48 21.7843 113.977 21.5262 109.065 23.7066C98.7842 28.2701 89.9419 42.1568 89.3486 54.6559C89.0531 60.6419 90.6923 65.3958 93.9383 68.0788C97.1843 70.7618 101.681 71.0058 106.606 68.8199C116.886 64.2564 125.729 50.3696 126.322 37.8705C126.569 34.8106 126.071 31.65 124.879 28.7022ZM90.2489 64.0653C89.0093 61.0075 88.4896 57.7283 88.741 54.5523C89.3452 41.8447 98.3407 27.7373 108.757 23.1135C113.879 20.8399 118.581 21.1458 122.039 24.0063C125.496 26.8668 127.205 31.8103 126.911 38.0331C126.307 50.7407 117.312 64.8482 106.895 69.472C101.773 71.7455 97.0594 71.4451 93.6139 68.5792C92.1762 67.3886 91.0149 65.8308 90.2489 64.0653Z" fill="#FA885C"/>
</g>
<g opacity="0.4" clip-path="url(#clip1_306_6262)" filter="url(#filter1_f_306_6262)">
<path d="M339.739 104.155C332.32 100.442 326.303 89.9441 326.288 80.7055C326.282 76.0818 327.78 72.6719 330.225 70.8444L332.775 68.9597L332.467 69.7274C334.556 69.105 337.029 69.3769 339.696 70.7117C347.114 74.4254 353.143 84.9182 353.151 94.1529C353.266 96.7849 352.585 99.482 351.21 101.841L351.825 102.083L349.234 103.992L349.132 104.061C346.713 105.781 343.408 105.949 339.756 104.12L339.739 104.155Z" fill="#D96C4B"/>
<path d="M342.361 102.255C349.779 105.969 355.784 101.5 355.769 92.2613C355.753 83.0227 349.732 72.5338 342.321 68.8239C334.91 65.114 328.897 69.5791 328.913 78.8177C328.928 88.0563 334.95 98.5452 342.361 102.255Z" fill="#FFDBB9"/>
<path d="M332.048 73.9178C332.547 72.8885 333.277 71.9923 334.161 71.3208C336.295 69.7327 339.149 69.7016 342.19 71.2238C348.554 74.4097 353.736 83.4464 353.744 91.3643C353.755 95.1566 352.579 98.1134 350.449 99.7141C348.319 101.315 345.469 101.337 342.421 99.8112C336.056 96.6253 330.875 87.5885 330.866 79.6706C330.8 77.7292 331.207 75.7461 332.048 73.9178ZM352.899 97.2854C353.772 95.3889 354.197 93.3314 354.131 91.3166C354.122 83.2666 348.85 74.0859 342.402 70.8579C339.231 69.2707 336.25 69.3261 333.981 71.0328C331.711 72.7395 330.486 75.8142 330.489 79.7561C330.498 87.806 335.77 96.9868 342.218 100.215C345.389 101.802 348.377 101.75 350.639 100.04C351.583 99.3295 352.363 98.3788 352.899 97.2854Z" fill="#FA885C"/>
</g>
</g>
<defs>
<filter id="filter0_f_306_6262" x="72" y="11" width="75.637" height="73.7598" filterUnits="userSpaceOnUse" color-interpolation-filters="sRGB">
<feFlood flood-opacity="0" result="BackgroundImageFix"/>
<feBlend mode="normal" in="SourceGraphic" in2="BackgroundImageFix" result="shape"/>
<feGaussianBlur stdDeviation="1" result="effect1_foregroundBlur_306_6262"/>
</filter>
<filter id="filter1_f_306_6262" x="316" y="62" width="50.0085" height="48.9624" filterUnits="userSpaceOnUse" color-interpolation-filters="sRGB">
<feFlood flood-opacity="0" result="BackgroundImageFix"/>
<feBlend mode="normal" in="SourceGraphic" in2="BackgroundImageFix" result="shape"/>
<feGaussianBlur stdDeviation="1" result="effect1_foregroundBlur_306_6262"/>
</filter>
<linearGradient id="paint0_linear_306_6262" x1="71.3351" y1="150.861" x2="337.955" y2="448.89" gradientUnits="userSpaceOnUse">
<stop offset="0.0364583" stop-color="#FFCD9E"/>
<stop offset="0.416667" stop-color="#FFD3BA"/>
<stop offset="0.744792" stop-color="#FFB7A0"/>
</linearGradient>
<linearGradient id="paint1_linear_306_6262" x1="107.86" y1="145.62" x2="186.827" y2="403.951" gradientUnits="userSpaceOnUse">
<stop stop-color="#FFBB95"/>
<stop offset="0.354167" stop-color="#FF6B17"/>
<stop offset="0.510417" stop-color="#FF5C00"/>
<stop offset="0.703125" stop-color="#FF800C"/>
</linearGradient>
<linearGradient id="paint2_linear_306_6262" x1="218.761" y1="220.042" x2="418.984" y2="439.495" gradientUnits="userSpaceOnUse">
<stop offset="0.0364583" stop-color="#FF9A9A"/>
<stop offset="0.416667" stop-color="#FFB489"/>
<stop offset="0.744792" stop-color="#FF9C7D"/>
</linearGradient>
<linearGradient id="paint3_linear_306_6262" x1="324.013" y1="299.581" x2="252.991" y2="268.439" gradientUnits="userSpaceOnUse">
<stop stop-color="#FFC289"/>
<stop offset="1" stop-color="#FFC5AC"/>
<stop offset="1" stop-color="#FFD4AC"/>
</linearGradient>
<linearGradient id="paint4_linear_306_6262" x1="213.988" y1="294.372" x2="57.7133" y2="223.432" gradientUnits="userSpaceOnUse">
<stop stop-color="#FFDFD5"/>
<stop offset="1" stop-color="#F6D4B4"/>
</linearGradient>
<linearGradient id="paint5_linear_306_6262" x1="222.738" y1="106.248" x2="228.322" y2="225.552" gradientUnits="userSpaceOnUse">
<stop stop-color="#F9DADA" stop-opacity="0"/>
<stop offset="0.692708" stop-color="#FFF1CD" stop-opacity="0.57"/>
<stop offset="1" stop-color="#FFE5B4" stop-opacity="0.78"/>
</linearGradient>
<linearGradient id="paint6_linear_306_6262" x1="262.772" y1="223.314" x2="174.495" y2="67.0854" gradientUnits="userSpaceOnUse">
<stop stop-color="#FA5A00"/>
<stop offset="1" stop-color="#FF856F" stop-opacity="0"/>
</linearGradient>
<linearGradient id="paint7_linear_306_6262" x1="166.102" y1="119.602" x2="277.771" y2="151.645" gradientUnits="userSpaceOnUse">
<stop stop-color="#FFA756"/>
<stop offset="1" stop-color="#F8765E" stop-opacity="0"/>
</linearGradient>
<clipPath id="clip0_306_6262">
<rect width="51.745" height="55.39" fill="white" transform="matrix(0.406039 0.913856 -0.914 0.405714 124.626 13)"/>
</clipPath>
<clipPath id="clip1_306_6262">
<rect width="32.7429" height="35.0481" fill="white" transform="matrix(-0.447975 0.894046 0.894218 0.447631 332.668 64)"/>
</clipPath>
</defs>
</svg>
