<svg width="12" height="12" viewBox="0 0 12 12" fill="none" xmlns="http://www.w3.org/2000/svg">
    <path d="M7.12198 6.12722L11.102 2.15932C11.1675 2.09624 11.2198 2.02077 11.2558 1.93732C11.2917 1.85388 11.3107 1.76412 11.3115 1.6733C11.3123 1.58248 11.2949 1.4924 11.2605 1.40834C11.226 1.32427 11.175 1.2479 11.1106 1.18367C11.0462 1.11945 10.9696 1.06866 10.8852 1.03427C10.8009 0.999886 10.7106 0.982587 10.6195 0.983387C10.5284 0.984187 10.4383 1.00307 10.3546 1.03893C10.2709 1.0748 10.1953 1.12692 10.132 1.19227L6.15198 5.16017L2.17198 1.19227C2.04259 1.06774 1.86932 0.998844 1.68948 1.00042C1.50964 1.002 1.33761 1.07393 1.21044 1.20071C1.08327 1.32749 1.01113 1.499 1.00955 1.67829C1.00796 1.85758 1.07706 2.03032 1.20198 2.15932L5.18198 6.12722L1.20198 10.0951C1.13643 10.1582 1.08415 10.2337 1.04817 10.3171C1.0122 10.4006 0.993261 10.4903 0.992458 10.5811C0.991656 10.672 1.00901 10.762 1.0435 10.8461C1.07799 10.9302 1.12894 11.0065 1.19336 11.0708C1.25778 11.135 1.33438 11.1858 1.4187 11.2202C1.50303 11.2546 1.59337 11.2719 1.68447 11.2711C1.77557 11.2703 1.8656 11.2514 1.9493 11.2155C2.033 11.1796 2.1087 11.1275 2.17198 11.0622L6.15198 7.09427L10.132 11.0622C10.1953 11.1275 10.2709 11.1796 10.3546 11.2155C10.4383 11.2514 10.5284 11.2703 10.6195 11.2711C10.7106 11.2719 10.8009 11.2546 10.8852 11.2202C10.9696 11.1858 11.0462 11.135 11.1106 11.0708C11.175 11.0065 11.226 10.9302 11.2605 10.8461C11.2949 10.762 11.3123 10.672 11.3115 10.5811C11.3107 10.4903 11.2917 10.4006 11.2558 10.3171C11.2198 10.2337 11.1675 10.1582 11.102 10.0951L7.12198 6.12722Z"
          fill="#969696"/>
</svg>
