<svg width="16" height="16" viewBox="0 0 16 16" fill="none" xmlns="http://www.w3.org/2000/svg">
<rect width="16" height="16" rx="3" fill="black"/>
<path d="M5.67049 5.472C5.67049 5.34859 5.62827 5.22632 5.53622 5.13427C5.44418 5.04223 5.32191 5 5.1985 5C5.14644 5 5.10405 5.01287 5.07742 5.02286C5.05787 5.03019 5.03981 5.0388 5.02849 5.0444L2.4515 7.42145L2.44654 7.4264C2.26463 7.60831 2.27451 7.86417 2.35531 8.02578L2.37507 8.06529L4.84714 10.4025C4.96457 10.5177 5.09738 10.5173 5.14913 10.5172L5.1541 10.5172C5.27751 10.5172 5.39978 10.4749 5.49182 10.3829C5.58387 10.2908 5.6261 10.1686 5.6261 10.0452L5.6261 10.0402C5.62625 9.98793 5.62664 9.85319 5.50855 9.7351L3.4301 7.77891L5.50494 5.78551L5.51201 5.77844C5.53164 5.75885 5.56509 5.72547 5.59275 5.6886C5.62017 5.65204 5.67049 5.57577 5.67049 5.472Z" fill="white"/>
<path d="M10.1793 10.0452C10.1793 10.1686 10.2215 10.2909 10.3136 10.3829C10.4056 10.475 10.5279 10.5172 10.6513 10.5172C10.7033 10.5172 10.7457 10.5043 10.7724 10.4943C10.7919 10.487 10.81 10.4784 10.8213 10.4728L13.3983 8.09573L13.4033 8.09078C13.5852 7.90887 13.5753 7.65301 13.4945 7.4914L13.4747 7.45189L11.0027 5.11466C10.8852 4.99949 10.7524 4.99987 10.7007 5.00001L10.6957 5.00002C10.5723 5.00002 10.45 5.04225 10.358 5.1343C10.2659 5.22634 10.2237 5.34861 10.2237 5.47202L10.2237 5.47699C10.2235 5.52925 10.2232 5.66399 10.3412 5.78208L12.4197 7.73827L10.3449 9.73167L10.3378 9.73874C10.3182 9.75833 10.2847 9.79171 10.257 9.82858C10.2296 9.86515 10.1793 9.94141 10.1793 10.0452Z" fill="white"/>
<rect x="8.5498" y="3" width="1" height="10" rx="0.5" transform="rotate(15 8.5498 3)" fill="white"/>
</svg>
