<svg width="16" height="16" viewBox="0 0 16 16" fill="none" xmlns="http://www.w3.org/2000/svg">
<path d="M15.1 15.7998L10.8 11.4998C8.10005 13.7998 4.00005 13.4998 1.60005 10.7998C-0.799954 8.0998 -0.399954 3.9998 2.30005 1.5998C5.00005 -0.800198 9.10005 -0.400198 11.5 2.2998C13.6 4.6998 13.6 8.2998 11.5 10.7998L15.8 15.0998C16 15.2998 16 15.5998 15.8 15.7998C15.6 15.9998 15.3 15.9998 15.1 15.7998ZM1.10005 6.5998C1.10005 9.5998 3.60005 12.0998 6.60005 12.0998C9.60005 12.0998 12.1 9.5998 12.1 6.5998C12.1 3.5998 9.60005 1.0998 6.60005 1.0998C3.50005 1.0998 1.10005 3.4998 1.10005 6.5998Z" fill="#AFAFAF"/>
</svg>
