<svg width="181" height="103" viewBox="0 0 181 103" fill="none" xmlns="http://www.w3.org/2000/svg">
<g clip-path="url(#clip0_385_7417)">
<path opacity="0.8" d="M41.0701 38.5726C37.4628 38.7088 33.8635 39.2398 30.2572 39.208C24.808 39.1464 19.5727 37.7865 15.0756 35.2643C12.635 33.8877 9.70944 32.1196 7.00369 33.4137C3.25488 35.1796 4.36101 39.7726 5.70747 42.3405C7.69657 46.1471 11.721 48.3335 16.337 48.8807C21.8618 49.5411 27.0351 47.9568 32.3018 46.1574C34.2967 45.4755 36.2166 44.6457 38.3012 44.2638C40.3673 43.8872 42.4639 43.8089 44.511 44.0321C47.0037 44.31 49.3094 45.0836 51.7548 45.5001C52.7998 45.6801 54.4695 45.5919 54.9973 44.4866C55.654 43.1477 53.9825 41.8332 53.0174 41.1836C49.8243 39.0472 45.0924 38.4196 41.0701 38.5726Z" fill="#FF6900" fill-opacity="0.06"/>
<path d="M43.1963 28.6805C41.7679 26.8141 40.5211 24.7907 39.0173 22.9933C36.739 20.2829 33.9629 18.2091 30.9673 16.9797C29.338 16.3157 27.3317 15.5679 26.7983 13.682C26.0471 11.0801 28.5769 9.763 30.292 9.39208C32.8316 8.83875 35.4805 9.9677 37.6339 12.0619C40.2137 14.5662 41.6352 17.8091 42.9983 21.1866C43.5144 22.4661 43.9328 23.7681 44.6214 24.9703C45.3047 26.1611 46.1353 27.2454 47.0815 28.1822C48.2364 29.3202 49.5378 30.1623 50.7358 31.2201C51.2486 31.6713 51.8984 32.5455 51.6175 33.2611C51.2845 34.1366 50.0008 33.8334 49.309 33.6137C47.026 32.8817 44.7885 30.7621 43.1963 28.6805Z" fill="#FF6900" fill-opacity="0.06"/>
<path d="M157.206 37.4672C155.923 38.06 154.571 38.5257 153.319 39.1717C151.429 40.1523 149.847 41.5087 148.732 43.1048C148.128 43.9736 147.426 45.0526 146.249 45.1176C144.623 45.2164 144.183 43.5588 144.191 42.5037C144.2 40.9407 145.211 39.5348 146.723 38.5465C148.531 37.3619 150.621 36.9541 152.782 36.5983C153.601 36.4636 154.42 36.3892 155.216 36.1432C156.004 35.8988 156.75 35.554 157.424 35.1219C158.243 34.5938 158.909 33.9409 159.687 33.377C160.019 33.1354 160.617 32.869 161 33.1279C161.47 33.4384 161.124 34.1518 160.904 34.5288C160.174 35.7722 158.636 36.8066 157.206 37.4672Z" fill="#FF6900" fill-opacity="0.06"/>
<path d="M147.736 30.9831C149.695 28.85 151.413 26.4958 153.473 24.4593C156.594 21.3899 160.378 19.1843 164.444 18.0636C166.655 17.4599 169.377 16.8035 170.128 14.5224C171.186 11.3772 167.79 9.38249 165.48 8.68204C162.059 7.63974 158.462 8.68305 155.52 11.0003C151.994 13.7706 150.022 17.6235 148.125 21.6525C147.407 23.1788 146.821 24.7469 145.871 26.1528C144.929 27.5453 143.79 28.7845 142.496 29.8233C140.918 31.0847 139.146 31.9562 137.511 33.1114C136.811 33.6039 135.919 34.6056 136.287 35.5381C136.722 36.6774 138.461 36.4763 139.399 36.2977C142.495 35.6994 145.551 33.3622 147.736 30.9831Z" fill="#FF6900" fill-opacity="0.06"/>
<path opacity="0.1" d="M122.441 92.2766L92.6021 83.2305L61.5015 92.2761C60.9763 92.436 60.6406 92.7781 60.6406 93.1547C60.6406 93.5313 60.9763 93.8734 61.5015 94.0333L91.3399 103.08C91.5398 103.141 91.7554 103.171 91.971 103.171C92.1866 103.171 92.4022 103.141 92.6021 103.08L122.441 94.0333C122.965 93.8739 123.301 93.5322 123.301 93.1552C123.301 92.7781 122.965 92.436 122.441 92.2766Z" fill="#C4C4C4"/>
<path d="M122.822 87.3312L92.9839 78.2852L61.8833 87.3308C61.3581 87.4907 61.0225 87.8328 61.0225 88.2094C61.0225 88.5859 61.3581 88.9281 61.8833 89.088L91.3914 98.1351C91.5913 98.1957 91.9826 98.2571 92.1982 98.2571C92.4138 98.2571 92.784 98.1957 92.9839 98.1351L122.822 89.088C123.347 88.9286 123.682 88.5869 123.682 88.2099C123.682 87.8328 123.347 87.4907 122.822 87.3312Z" fill="#FDC8AA"/>
<path d="M94.2802 97.77C93.2409 98.0781 92.1978 97.2993 92.1978 96.2153V69.9312C92.1978 69.2166 92.6656 68.5862 93.3496 68.3792L124.216 59.0374C125.257 58.7223 126.307 59.5016 126.307 60.5895V87.0656C126.307 87.7837 125.835 88.4162 125.146 88.6203L94.2802 97.77Z" fill="#F8E3D0" fill-opacity="0.9"/>
<path opacity="0.3" d="M58.3433 87.955V57.7535L89.7625 47.7676V76.2641L58.3433 87.955Z" fill="#EAC2B5"/>
<path opacity="0.2" d="M124.648 57.1301L90.2205 47.7755C89.9206 47.694 89.6035 47.7004 89.307 47.794L59.7457 57.1296C59.1864 57.3015 58.3418 57.719 58.3418 58.1237C58.3418 58.5285 59.1864 58.8465 59.7457 59.0184L91.5249 68.7424C91.7379 68.8076 91.9121 69.6907 92.1417 69.6907C92.2735 69.6907 92.1559 68.9653 92.829 68.5437C92.9086 68.4938 92.9977 68.4611 93.0878 68.4342L124.648 59.0184C125.207 58.847 126.295 58.529 126.295 58.1237C126.295 57.7185 125.207 57.3015 124.648 57.1301Z" fill="#FFD6BF"/>
<path d="M41 24.3828H138.699L126.235 58.1553L92.0607 69.4127L57.8862 57.3511L41 24.3828Z" fill="url(#paint0_linear_385_7417)"/>
<path opacity="0.05" fill-rule="evenodd" clip-rule="evenodd" d="M126.314 21.2099C126.546 22.0295 126.07 22.8824 125.25 23.1149C120.775 24.3837 117.717 27.2197 115.692 30.3112C113.653 33.4253 112.708 36.7374 112.463 38.7661C112.361 39.6119 111.593 40.2151 110.747 40.1134C109.901 40.0116 109.298 39.2434 109.4 38.3976C109.697 35.9359 110.792 32.1645 113.111 28.6218C115.446 25.0563 119.066 21.662 124.409 20.1468C125.229 19.9143 126.081 20.3903 126.314 21.2099Z" fill="#FA7A42"/>
<path opacity="0.05" fill-rule="evenodd" clip-rule="evenodd" d="M60.3584 24.2178C60.0418 25.0085 60.4264 25.9066 61.2174 26.2238C71.1744 30.2167 73.8848 40.7537 73.9496 45.5942C73.9609 46.4461 74.6608 47.128 75.5126 47.1173C76.3645 47.1066 77.0458 46.4073 77.0345 45.5554C76.9622 40.1487 74.0002 28.0267 62.3637 23.3603C61.5727 23.0431 60.6749 23.427 60.3584 24.2178Z" fill="#FA7A42"/>
<g style="mix-blend-mode:multiply" opacity="0.5">
<path d="M122.416 33.383C121.709 32.6721 120.814 32.0795 120.017 32.288C119.309 32.5842 119.212 34.29 119.195 34.8763C119.15 36.4521 120.287 36.3901 121.739 35.7889C124.056 34.8293 122.601 33.569 122.416 33.383Z" fill="#FA7A42"/>
</g>
<g style="mix-blend-mode:multiply" opacity="0.3">
<path d="M73.1808 38.4599C72.8331 36.2425 71.9887 33.9938 70.2686 33.3278C68.5937 32.9373 66.172 35.9057 65.3698 36.9478C63.2136 39.7485 65.3592 41.127 68.786 41.9395C74.2551 43.2361 73.2718 39.0402 73.1808 38.4599Z" fill="#FA7A42"/>
</g>
<g style="mix-blend-mode:multiply">
<path d="M94.7733 36.6196C98.2183 35.9335 101.68 34.4688 102.611 31.7364C103.115 29.0922 98.3174 25.4959 96.6365 24.3082C92.1186 21.1163 90.1006 24.5599 89.0501 29.9707C87.3735 38.6061 93.8717 36.7992 94.7733 36.6196Z" fill="#FA7A42"/>
</g>
<g style="mix-blend-mode:multiply" opacity="0.5">
<path d="M77.4785 17.6701C77.315 16.6271 76.9182 15.5694 76.1106 15.256C75.3242 15.0721 74.1876 16.468 73.811 16.958C72.799 18.275 73.8065 18.9236 75.4155 19.3061C77.9834 19.9165 77.5213 17.943 77.4785 17.6701Z" fill="#FA7A42"/>
</g>
<g style="mix-blend-mode:multiply" opacity="0.3">
<path d="M103.138 53.3039C101.115 53.8357 99.1097 54.8293 98.6555 56.4815C98.4524 58.0659 101.435 60.0212 102.477 60.6634C105.279 62.3893 106.354 60.2763 106.782 57.0335C107.465 51.858 103.667 53.1648 103.138 53.3039Z" fill="#FA7A42"/>
</g>
<g style="mix-blend-mode:multiply" opacity="0.3">
<path d="M117.939 7.88801C117.155 6.95986 116.133 6.15657 115.153 6.33105C114.272 6.62027 113.991 8.6728 113.915 9.37989C113.71 11.2803 115.086 11.3161 116.894 10.7305C119.779 9.79597 118.145 8.1309 117.939 7.88801Z" fill="#FA7A42"/>
</g>
<g style="mix-blend-mode:multiply" opacity="0.2">
<path d="M136.285 16.2346C135.071 16.1826 133.788 16.3899 133.253 17.2289C132.868 18.0733 134.188 19.6702 134.656 20.2054C135.915 21.644 136.874 20.6558 137.668 18.9296C138.935 16.1747 136.603 16.2483 136.285 16.2346Z" fill="#FA7A42"/>
</g>
<g style="mix-blend-mode:multiply" opacity="0.2">
<path d="M56.0696 10.0647C54.8556 10.0127 53.5724 10.22 53.0368 11.0589C52.6522 11.9033 53.9718 13.5002 54.4402 14.0355C55.6988 15.4741 56.6577 14.4859 57.4517 12.7597C58.7189 10.0048 56.3872 10.0783 56.0696 10.0647Z" fill="#FA7A42"/>
</g>
<path d="M90.106 97.7446C91.1473 98.06 92.1978 97.2807 92.1978 96.1926V69.9148C92.1978 69.201 91.731 68.5712 91.0482 68.3634L59.5116 57.9246C57.969 57.41 58.3087 57.4108 58.3087 60.5911V86.9082C58.3087 87.6227 58.7763 88.253 59.4601 88.4602L90.106 97.7446Z" fill="#FFBD98" fill-opacity="0.8"/>
<g opacity="0.5">
<path d="M116.21 29.3091C116.21 42.0886 105.85 52.4483 93.0708 52.4483C80.2914 52.4483 69.9316 42.0886 69.9316 29.3091C69.9316 16.5297 80.2914 6.16992 93.0708 6.16992C105.85 6.16992 116.21 16.5297 116.21 29.3091Z" fill="url(#paint1_radial_385_7417)"/>
</g>
</g>
<defs>
<linearGradient id="paint0_linear_385_7417" x1="88.1693" y1="25.222" x2="88.1693" y2="57.7302" gradientUnits="userSpaceOnUse">
<stop stop-color="white" stop-opacity="0"/>
<stop offset="1" stop-color="#F5E6DE" stop-opacity="0.569"/>
</linearGradient>
<radialGradient id="paint1_radial_385_7417" cx="0" cy="0" r="1" gradientUnits="userSpaceOnUse" gradientTransform="translate(93.0708 29.3091) rotate(77.4127) scale(30.3354)">
<stop stop-color="#FFAB6F"/>
<stop offset="0.994792" stop-color="white" stop-opacity="0"/>
</radialGradient>
<clipPath id="clip0_385_7417">
<rect width="181" height="102.841" fill="white"/>
</clipPath>
</defs>
</svg>
