<svg width="60" height="60" viewBox="0 0 60 60" fill="none" xmlns="http://www.w3.org/2000/svg">
<rect width="60" height="60" rx="8" fill="#0277FF"/>
<g clip-path="url(#clip0_109_2079)">
<path d="M24.695 13C25.2648 13.1623 25.8532 13.2727 26.3991 13.5004C27.2718 13.855 28.1258 14.2695 28.9693 14.6854C29.285 14.8534 29.6352 14.9419 29.9909 14.9436C30.3466 14.9452 30.6975 14.86 31.0147 14.6949C31.8422 14.2858 32.6817 13.9109 33.5158 13.5222C35.8495 12.4314 38.3333 13.4909 39.2418 15.9494C39.5712 16.8398 39.9059 17.7288 40.2194 18.6247C40.3256 18.9597 40.5072 19.2643 40.7495 19.5138C40.9918 19.7632 41.288 19.9505 41.614 20.0605C42.5385 20.3987 43.458 20.7551 44.3727 21.1296C44.895 21.3378 45.3704 21.6532 45.7699 22.0565C46.1693 22.4598 46.4844 22.9426 46.6957 23.4753C46.9071 24.008 47.0104 24.5793 46.9992 25.1544C46.988 25.7295 46.8626 26.2961 46.6307 26.8197C46.2438 27.7224 45.8453 28.6201 45.4353 29.5128C45.2771 29.8324 45.1947 30.1858 45.1947 30.5443C45.1947 30.9028 45.2771 31.2562 45.4353 31.5758C45.8338 32.4267 46.1991 33.2885 46.5763 34.1462C47.6389 36.5529 46.6241 39.0782 44.2253 40.03C43.3606 40.3736 42.4986 40.7117 41.6207 41.0349C41.2932 41.1424 40.9952 41.3279 40.7509 41.5762C40.5067 41.8246 40.3232 42.1288 40.2154 42.4639C39.8993 43.3707 39.5606 44.2706 39.2272 45.1706C38.3253 47.6018 35.8216 48.6545 33.5158 47.5773C32.6498 47.1682 31.7891 46.7742 30.9204 46.3651C30.6311 46.2191 30.313 46.1432 29.9907 46.1432C29.6683 46.1432 29.3502 46.2191 29.0609 46.3651C28.2175 46.7646 27.3714 47.1546 26.5267 47.5487C24.1358 48.6654 21.6733 47.6223 20.7369 45.0942C20.4115 44.2134 20.0821 43.3352 19.7713 42.4503C19.6652 42.1215 19.4856 41.8227 19.2469 41.5779C19.0082 41.333 18.717 41.149 18.3966 41.0404C17.5133 40.7145 16.638 40.3586 15.7587 40.0259C13.425 39.1355 12.3677 36.5651 13.3798 34.2321C13.7664 33.3403 14.1569 32.4513 14.562 31.569C14.7159 31.2535 14.796 30.9054 14.796 30.5525C14.796 30.1996 14.7159 29.8515 14.562 29.536C14.1728 28.6837 13.7996 27.8233 13.421 26.9656C12.3465 24.5303 13.3745 21.9914 15.8118 21.0532C16.6805 20.7191 17.5452 20.3714 18.4165 20.0483C18.7316 19.9381 19.0176 19.7544 19.252 19.5117C19.4864 19.2689 19.6627 18.9737 19.7673 18.6493C20.1073 17.6902 20.458 16.7357 20.8193 15.7858C21.1212 14.9922 21.6497 14.3109 22.3354 13.8311C23.0211 13.3512 23.832 13.0953 24.6618 13.0968L24.695 13ZM27.0858 35.1661C28.9945 35.1661 30.8633 35.1661 32.7321 35.1579C32.7809 35.1522 32.8276 35.1342 32.8681 35.1057C32.9086 35.0772 32.9418 35.039 32.9646 34.9943C33.1638 34.2471 33.6287 33.7112 34.1879 33.2217C35.552 32.0067 36.2958 30.4564 36.3622 28.606C36.4059 27.658 36.2457 26.7117 35.8931 25.8343C35.5404 24.957 35.004 24.1701 34.3218 23.5295C33.6396 22.8889 32.8285 22.4103 31.9459 22.1278C31.0633 21.8452 30.1309 21.7656 29.215 21.8945C26.5306 22.2613 24.699 23.8499 23.9114 26.4938C23.1291 29.116 23.8463 31.4027 25.832 33.2367C26.4151 33.7698 26.9371 34.3139 27.0845 35.1661H27.0858ZM27.0686 36.632C27.119 37.146 27.1151 37.6492 27.2253 38.1251C27.3004 38.4488 27.4789 38.7373 27.7324 38.9447C27.9859 39.152 28.2998 39.2662 28.6239 39.2691C29.5404 39.2841 30.4582 39.2854 31.3747 39.2691C31.6996 39.2698 32.0155 39.1593 32.2724 38.9551C32.5293 38.7509 32.7126 38.4646 32.7932 38.1414C32.8995 37.6574 32.8769 37.1419 32.9128 36.6333L27.0686 36.632Z" fill="white"/>
</g>
<defs>
<clipPath id="clip0_109_2079">
<rect width="34" height="35" fill="white" transform="translate(13 13)"/>
</clipPath>
</defs>
</svg>
