<svg width="60" height="60" viewBox="0 0 60 60" fill="none" xmlns="http://www.w3.org/2000/svg">
<rect width="60" height="60" rx="8" fill="#55ACEE"/>
<path d="M44.3525 20.9754C43.2725 21.4543 42.1119 21.778 40.8938 21.9236C42.1372 21.1783 43.092 19.9981 43.5416 18.592C42.3781 19.282 41.0893 19.7832 39.7176 20.0533C38.619 18.8829 37.054 18.1516 35.3219 18.1516C31.9961 18.1516 29.2997 20.8478 29.2997 24.1734C29.2997 24.6454 29.3531 25.105 29.4557 25.5458C24.4508 25.2947 20.0135 22.8972 17.0434 19.2539C16.525 20.1433 16.228 21.1777 16.228 22.2813C16.228 24.3706 17.2913 26.2138 18.9071 27.2937C17.9199 27.2624 16.9914 26.9916 16.1794 26.5405C16.179 26.5656 16.179 26.5909 16.179 26.6162C16.179 29.534 18.2548 31.9679 21.0096 32.5211C20.5043 32.6587 19.9723 32.7323 19.423 32.7323C19.035 32.7323 18.6577 32.6946 18.2901 32.6242C19.0564 35.0168 21.2803 36.7578 23.9155 36.8064C21.8545 38.4215 19.2579 39.3843 16.4365 39.3843C15.9505 39.3843 15.4711 39.3558 15 39.3002C17.665 41.0088 20.8305 42.0057 24.2312 42.0057C35.3079 42.0057 41.365 32.8295 41.365 24.8717C41.365 24.6106 41.3592 24.3509 41.3476 24.0927C42.5241 23.2437 43.5451 22.183 44.3525 20.9754Z" fill="white"/>
</svg>
