<svg width="14" height="16" viewBox="0 0 14 16" fill="none" xmlns="http://www.w3.org/2000/svg">
    <path d="M3.05181 3.84865C3.05206 3.08654 3.2785 2.34165 3.70243 1.70834C4.12637 1.07503 4.72873 0.581781 5.43322 0.291082C5.57689 0.231796 5.7235 0.181478 5.8722 0.140209C6.1665 0.0489508 6.47782 6.70538e-06 6.79992 6.70538e-06C6.81603 6.70538e-06 6.83211 0.000129122 6.84816 0.000373132C7.11926 -0.00340143 7.39132 0.0214516 7.65981 0.0753734C8.40699 0.225436 9.09284 0.593883 9.63046 1.13404C10.1681 1.6742 10.5333 2.36177 10.6798 3.10966C10.8264 3.85754 10.7476 4.6321 10.4536 5.33521C10.1596 6.03832 9.66354 6.63835 9.02823 7.0593C8.39293 7.48024 7.64698 7.70317 6.88488 7.69983C6.37999 7.69984 5.88007 7.60009 5.41383 7.40633C4.9476 7.21257 4.52424 6.92861 4.16807 6.57075C3.8119 6.2129 3.52993 5.78821 3.33837 5.32106C3.14681 4.85392 3.04942 4.35354 3.05181 3.84865Z"
          fill="#ED6C53"/>
    <path fill-rule="evenodd" clip-rule="evenodd"
          d="M5.92182 15.9964C5.00491 16.0009 4.08781 16.0055 3.17167 15.9809C2.71577 15.9734 2.26494 15.8839 1.8407 15.7168C0.926134 15.3373 0.418594 14.5881 0.358039 13.613C0.266894 12.1435 0.430456 10.7007 1.13777 9.3729C1.67152 8.37093 2.50057 7.78411 3.65361 7.74977C3.91332 7.74228 4.19299 7.86027 4.43646 7.97701C4.64348 8.07599 4.84399 8.1904 5.04428 8.30469C5.34046 8.4737 5.63614 8.64242 5.95159 8.76048C6.97354 9.14254 7.95678 8.92904 8.88571 8.40215C9.06027 8.30906 9.22634 8.20085 9.38201 8.07877C9.88768 7.65738 10.4483 7.67985 11.0332 7.84341C11.876 8.07939 12.4747 8.61814 12.8692 9.37914C13.5909 10.7719 13.7776 12.2746 13.6146 13.8072C13.4767 15.0826 12.3786 15.9503 11.0051 15.9928H7.00975C6.64721 15.9928 6.28449 15.9946 5.92182 15.9964Z"
          fill="#ED6C53"/>
</svg>
