<svg width="28" height="28" viewBox="0 0 28 28" fill="none" xmlns="http://www.w3.org/2000/svg">
    <mask id="path-1-outside-1_2503:11435" maskUnits="userSpaceOnUse" x="9" y="10" width="11" height="8" fill="black">
        <rect fill="white" x="9" y="10" width="11" height="8"/>
        <path fill-rule="evenodd" clip-rule="evenodd"
              d="M19.2694 11.1464C19.0742 10.9512 18.7576 10.9512 18.5623 11.1464L13.2594 16.4494L10.8536 14.0436C10.6583 13.8484 10.3417 13.8484 10.1464 14.0436C9.95118 14.2389 9.95118 14.5555 10.1464 14.7507L12.8904 17.4947C12.8953 17.5 12.9003 17.5053 12.9055 17.5104C12.9994 17.6043 13.1213 17.6531 13.2444 17.6566C13.3774 17.6607 13.5117 17.612 13.6133 17.5104C13.6185 17.5051 13.6237 17.4998 13.6287 17.4943L19.2694 11.8536C19.4647 11.6583 19.4647 11.3417 19.2694 11.1464Z"/>
    </mask>
    <path fill-rule="evenodd" clip-rule="evenodd"
          d="M19.2694 11.1464C19.0742 10.9512 18.7576 10.9512 18.5623 11.1464L13.2594 16.4494L10.8536 14.0436C10.6583 13.8484 10.3417 13.8484 10.1464 14.0436C9.95118 14.2389 9.95118 14.5555 10.1464 14.7507L12.8904 17.4947C12.8953 17.5 12.9003 17.5053 12.9055 17.5104C12.9994 17.6043 13.1213 17.6531 13.2444 17.6566C13.3774 17.6607 13.5117 17.612 13.6133 17.5104C13.6185 17.5051 13.6237 17.4998 13.6287 17.4943L19.2694 11.8536C19.4647 11.6583 19.4647 11.3417 19.2694 11.1464Z"
          fill="#AFAFAF"/>
     <path d="M24.3049 8.8117L24.8845 8.967L24.3049 8.81172L23.2992 12.5652L23.2349 12.8052L23.3592 13.0205L25.2748 16.3384L25.2749 16.3385C25.5324 16.7844 25.3796 17.3546 24.9336 17.6122L25.2258 18.1184L24.9336 17.6122L21.6156 19.5278L21.4004 19.6521L21.3361 19.8921L20.3386 23.6147C20.2053 24.1122 19.6939 24.4075 19.1965 24.2742L19.0618 24.7768L19.1965 24.2742L15.4739 23.2767L15.2339 23.2124L15.0186 23.3366L11.6616 25.2747L11.6615 25.2748C11.2156 25.5323 10.6454 25.3795 10.3878 24.9335L10.3878 24.9335L8.44956 21.5764L8.32529 21.3612L8.08525 21.2969L4.39352 20.3076C3.89601 20.1743 3.60078 19.6629 3.73405 19.1656L4.7233 15.4739L4.78763 15.2338L4.66337 15.0186L2.72528 11.6615L2.72522 11.6614C2.46769 11.2155 2.62047 10.6453 3.0665 10.3878L3.06652 10.3878L6.42357 8.44947L6.63879 8.32521L6.70311 8.08516L7.70059 4.36257C7.70059 4.36257 7.70059 4.36257 7.70059 4.36257C7.83388 3.86518 8.34518 3.56998 8.84266 3.70329L8.84266 3.70329L12.5653 4.70077L12.8053 4.7651L13.0205 4.64083L16.3385 2.72519C16.3385 2.72519 16.3385 2.72519 16.3385 2.72519C16.7845 2.46769 17.3548 2.6205 17.6122 3.06642L17.6122 3.06643L19.5279 6.38438L19.6522 6.59961L19.8922 6.66393L23.6457 7.66964C24.1431 7.80292 24.4382 8.31423 24.3049 8.8117Z"
          stroke="#AFAFAF" stroke-width="1.2"/>
</svg>
