<svg width="24" height="24" viewBox="0 0 24 24" fill="none" xmlns="http://www.w3.org/2000/svg">
    <rect width="24" height="24" fill="#ED6C53"/>
    <path d="M14.5638 6.05628C13.8967 5.38915 12.9794 5 11.9787 5C10.9781 5 10.0608 5.41695 9.39364 6.08407C8.72652 6.7512 8.30957 7.66849 8.30957 8.66917C8.30957 9.66986 8.72652 10.5872 9.39364 11.2543C10.0608 11.8936 10.9781 12.3106 11.9787 12.3106C12.9794 12.3106 13.8967 11.8936 14.5638 11.2265C15.231 10.5594 15.6479 9.64206 15.6479 8.64138C15.6479 7.64069 15.231 6.7234 14.5638 6.05628Z"
          fill="white"/>
    <path d="M16.8153 13.9228C15.5644 13.1723 13.8688 12.6997 12.0064 12.6997C10.144 12.6997 8.42062 13.1723 7.19757 13.9228C5.83552 14.7567 5.00162 15.9241 5.00162 17.2306V17.8977C4.97382 18.2869 5.30739 18.6204 5.69654 18.6204H18.2885C18.6776 18.6204 19.0112 18.3147 19.0112 17.8977V17.2306C19.0112 15.8963 18.1773 14.7289 16.8153 13.9228Z"
          fill="white"/>
</svg>
