<svg width="166" height="40" viewBox="0 0 166 40" fill="none" xmlns="http://www.w3.org/2000/svg">
    <path fill-rule="evenodd" clip-rule="evenodd"
          d="M17.9317 38.1082C14.9402 39.3406 11.9923 40 9.41437 40C7.14064 40 5.24635 39.4729 3.96484 38.4573C2.56295 37.3479 1.54893 35.3938 0.897027 32.657C0.244132 29.9158 -0.0516021 26.3623 0.00734659 22.02C0.0657999 17.8686 0.361534 14.4985 0.913869 11.8516C1.46075 9.23046 2.26226 7.30052 3.35108 6.02513C4.0966 3.44701 5.177 1.72337 6.64577 0.817123C8.17447 -0.131119 10.5067 -0.222428 13.1603 0.379623C15.8234 0.983627 18.8516 2.29466 21.8085 4.20799C24.1431 5.71361 26.4927 7.66478 28.3884 9.89379C32.3732 13.5044 35.5435 18.3174 34.9218 23.3501C34.4047 27.4634 30.8385 33.0552 22.3994 36.5564C21.0857 37.105 19.771 37.5366 18.5073 37.8516L18.5014 37.8545L18.4642 37.8716C18.381 37.9106 18.2963 37.95 18.2111 37.988C18.1185 38.0298 18.0253 38.0703 17.9317 38.1082ZM26.7384 30.0261C24.9456 31.5029 22.6996 32.8782 19.9325 34.0276C16.941 35.2603 13.9921 35.9202 11.4142 35.9202C10.626 35.9202 9.88795 35.8535 9.20582 35.731L9.30737 35.8162C10.1753 36.4998 11.4107 36.9084 12.9141 37.0286C13.68 37.0898 14.5117 37.0759 15.394 36.9866C16.2371 36.9014 17.1268 36.7473 18.0486 36.5247C22.1889 34.6894 24.9892 32.3533 26.7384 30.0261ZM28.9591 25.2722C28.9958 25.0845 29.0245 24.9021 29.0433 24.7229C29.4119 21.7463 28.2611 18.801 26.3332 16.1553C24.4067 13.5107 21.7158 11.1836 19.0433 9.45336C15.3652 7.06883 11.6524 5.67113 8.82885 5.46459C7.9248 6.57274 7.22138 8.3308 6.72899 10.7893C6.22569 13.3017 5.9468 16.5246 5.88884 20.4875C5.79869 26.7705 6.45208 31.231 7.7965 33.8518C9.05771 34.4346 10.7667 34.6436 12.7512 34.4644C14.7643 34.2822 17.046 33.7017 19.4 32.7241C23.9876 30.8152 27.0148 28.2944 28.8367 25.8088C28.8838 25.624 28.9249 25.4458 28.9591 25.2722ZM10.3784 4.28758C13.2233 4.79613 16.5601 6.17406 19.8092 8.27489C22.4733 9.99877 25.1636 12.3047 27.1812 14.9548C29.0047 17.3489 30.2877 20.0354 30.4933 22.8347C30.7895 22.0705 30.9713 21.3315 31.056 20.6433C31.4746 17.2175 29.8795 13.8203 27.422 10.9106C26.1865 9.78783 24.8614 8.78075 23.5363 7.9287C19.6437 5.41014 15.553 3.92015 12.5827 3.92015C12.179 3.92015 11.8045 3.94725 11.4602 3.99999C11.0585 4.06151 10.6979 4.15794 10.3784 4.28758ZM5.391 6.08006C5.12152 6.24486 4.86145 6.45555 4.62169 6.70262C3.8836 9.38646 3.48582 13.1184 3.42142 17.9455C3.36941 21.718 3.5839 24.8418 4.05747 27.3057C4.4072 29.1248 4.89662 30.5732 5.51732 31.6555C4.76287 28.8447 4.41909 25.1074 4.48695 20.4687C4.53897 16.6763 4.78962 13.5361 5.25329 11.0041C5.67831 8.68114 6.28514 6.85912 7.0916 5.51268C6.7493 5.55907 6.43325 5.63109 6.14495 5.7285C5.86853 5.82201 5.61689 5.9392 5.391 6.08006ZM17.7306 3.50462C14.9357 2.14232 12.2345 1.3784 10.1158 1.3784C8.97003 1.3784 8.0645 1.59593 7.40467 2.01292C6.63982 2.48436 5.96662 3.30736 5.4128 4.51415C6.21331 4.20043 7.16342 4.05711 8.21558 4.07005C8.5029 3.78856 8.79517 3.55003 9.12558 3.34593C10.3576 2.57396 12.1211 2.36937 14.1501 2.63768C15.2676 2.78563 16.4739 3.07787 17.7306 3.50462ZM6.60069 34.7913L6.53233 34.7485L6.40254 34.6648C6.2574 34.5691 6.1177 34.47 5.98148 34.3674L5.97752 34.3645C4.57612 33.2554 3.55864 31.3013 2.90475 28.5642C2.25037 25.823 1.95464 22.2695 2.02002 17.9272C2.04479 15.7913 2.1404 13.8594 2.30238 12.125C1.77135 14.6655 1.47809 17.9524 1.42162 22.0254C1.36366 26.1887 1.62621 29.5576 2.2043 32.1223C2.78339 34.6926 3.67257 36.4246 4.83966 37.3535C5.7011 38.0312 6.9306 38.4402 8.4281 38.5618C9.55902 38.6538 10.8356 38.5813 12.2068 38.342C10.6805 38.1396 9.39456 37.6609 8.44444 36.906C7.80938 36.4014 7.25705 35.7312 6.78546 34.9014C6.72304 34.8652 6.66112 34.8284 6.60069 34.7913ZM32.173 16.8183C32.498 18.1225 32.6075 19.4643 32.442 20.821C32.2305 22.5166 31.5088 24.4661 30.1287 26.4097C29.503 28.6348 28.0278 31.1384 25.4777 33.4534C30.8024 30.2737 33.1326 26.2175 33.5105 23.1848C33.784 21.0171 33.2411 18.8562 32.173 16.8183ZM97.2305 14.8474C97.5874 15.0855 97.8253 15.2556 97.9612 15.3916L99.7114 12.2281C98.8278 11.6328 97.7743 11.1055 96.5678 10.6633C95.3614 10.2211 94.036 10 92.6086 10C91.5891 10 90.6205 10.1361 89.7199 10.4082C88.8193 10.6974 88.0376 11.0885 87.3579 11.6158C86.6952 12.143 86.1685 12.7894 85.7777 13.5888C85.3868 14.3881 85.1999 15.2896 85.1999 16.3101C85.1999 17.0755 85.3189 17.7388 85.5568 18.3001C85.7946 18.8443 86.1515 19.3376 86.6273 19.7628C87.1031 20.188 87.6978 20.5622 88.4115 20.8683C89.1252 21.1915 89.9748 21.4636 90.9433 21.7358C91.742 21.9569 92.4726 22.161 93.1184 22.3481C93.7641 22.5522 94.3248 22.7563 94.7836 22.9774C95.2424 23.2155 95.5823 23.4706 95.8372 23.7768C96.092 24.0829 96.211 24.4401 96.211 24.8823C96.211 26.26 95.1235 26.9403 92.9485 26.9403C92.1668 26.9403 91.4021 26.8383 90.6545 26.6512C89.9068 26.4641 89.2271 26.2259 88.6154 25.9538C88.0036 25.6817 87.4769 25.4096 87.0351 25.1374C86.5763 24.8653 86.2704 24.6442 86.1005 24.4741L84.3503 27.8417C85.5397 28.6751 86.8652 29.3045 88.3605 29.7637C89.8388 30.2229 91.3512 30.444 92.8805 30.444C93.883 30.444 94.8346 30.342 95.7352 30.1208C96.6528 29.8997 97.4515 29.5596 98.1481 29.0833C98.8448 28.6071 99.4055 27.9948 99.8134 27.2294C100.221 26.4641 100.425 25.5456 100.425 24.4741C100.425 23.5557 100.272 22.7903 99.9663 22.1439C99.6604 21.4976 99.2187 20.9704 98.6579 20.5112C98.0972 20.0519 97.4175 19.6778 96.6018 19.3716C95.7862 19.0655 94.8856 18.7933 93.9 18.5212C93.6677 18.4592 93.4433 18.4003 93.2271 18.3436L93.2251 18.3431L93.2247 18.343L93.2246 18.343C92.7303 18.2133 92.2795 18.0951 91.8779 17.9769C91.3002 17.8068 90.8244 17.6197 90.4336 17.4156C90.0597 17.2115 89.7709 16.9734 89.5669 16.7013C89.363 16.4291 89.2611 16.072 89.2611 15.6638C89.2611 14.9494 89.533 14.3882 90.0597 13.997C90.5865 13.6058 91.4021 13.4017 92.4896 13.4017C93.1014 13.4017 93.6961 13.4697 94.2908 13.6228C94.8856 13.7759 95.4293 13.963 95.9391 14.1841C96.4489 14.4052 96.8737 14.6263 97.2305 14.8474ZM60.424 20.1533C60.424 19.2009 60.2881 18.2994 60.0162 17.5C59.7443 16.6836 59.3535 15.9863 58.8437 15.408C58.3339 14.8297 57.6882 14.3705 56.9406 14.0473C56.1929 13.7242 55.3263 13.5711 54.3747 13.5711H50.9423V26.8036H54.3747C55.3433 26.8036 56.2099 26.6335 56.9745 26.2933C57.7222 25.9532 58.3509 25.4939 58.8607 24.8987C59.3704 24.3034 59.7443 23.606 60.0162 22.7896C60.2881 21.9732 60.424 21.0888 60.424 20.1533ZM47 30.2222V10.1354H54.3917C56.057 10.1354 57.5013 10.3905 58.7587 10.9348C60.0162 11.4621 61.0527 12.1764 61.9023 13.0778C62.735 13.9793 63.3637 15.0508 63.7885 16.2584C64.2133 17.466 64.4172 18.7756 64.4172 20.1533C64.4172 21.6841 64.1793 23.0617 63.7205 24.3034C63.2447 25.545 62.582 26.5995 61.6984 27.4669C60.8148 28.3343 59.7613 29.0147 58.5379 29.5079C57.2974 29.9841 55.921 30.2222 54.3917 30.2222H47ZM81.428 26.7869V30.2226H67.3073V10.1357H81.1731V13.5544H71.2666V18.3848H79.8307V21.5653H71.2666V26.7869H81.428ZM120.441 30.2226V16.9221L115.208 26.8209H113.05L107.816 16.9221V30.2226H103.857V10.1357H108.105L114.12 21.5653L120.187 10.1357H124.401V30.2226H120.441ZM131.962 22.6882C131.69 21.8718 131.554 21.0384 131.554 20.171C131.554 19.3376 131.673 18.5212 131.945 17.7218C132.2 16.9224 132.574 16.208 133.067 15.5787C133.577 14.9494 134.188 14.4392 134.936 14.048C135.684 13.6568 136.533 13.4697 137.485 13.4697C138.402 13.4697 139.235 13.6398 139.966 14.014C140.713 14.3711 141.325 14.8644 141.835 15.4937C142.345 16.106 142.736 16.8203 143.007 17.6367C143.279 18.4531 143.415 19.2865 143.415 20.154C143.415 20.9874 143.279 21.8038 143.024 22.6032C142.769 23.4026 142.396 24.1169 141.886 24.7632C141.376 25.4096 140.747 25.9198 140.017 26.311C139.286 26.7022 138.436 26.8893 137.485 26.8893C136.55 26.8893 135.718 26.7022 134.987 26.328C134.239 25.9538 133.628 25.4606 133.118 24.8313C132.608 24.219 132.234 23.5046 131.962 22.6882ZM133.407 29.4916C134.613 30.0698 135.956 30.359 137.451 30.359C138.878 30.359 140.204 30.0698 141.444 29.5426C142.651 28.9813 143.704 28.2329 144.588 27.2975C145.454 26.362 146.151 25.2905 146.644 24.0659C147.137 22.8583 147.391 21.5827 147.391 20.239C147.391 18.9634 147.154 17.7218 146.678 16.4972C146.202 15.2726 145.539 14.184 144.673 13.2146C143.806 12.2621 142.769 11.4797 141.563 10.8844C140.34 10.2891 138.997 10 137.536 10C136.108 10 134.783 10.2721 133.56 10.8334C132.336 11.3947 131.283 12.143 130.399 13.0785C129.515 14.014 128.819 15.1025 128.309 16.3271C127.799 17.5517 127.544 18.8273 127.544 20.171C127.544 21.4466 127.782 22.7052 128.258 23.9298C128.734 25.1544 129.413 26.243 130.28 27.1954C131.147 28.1479 132.2 28.9133 133.407 29.4916ZM162.666 15.3916C162.53 15.2556 162.292 15.0855 161.935 14.8474C161.578 14.6263 161.153 14.4052 160.644 14.1841C160.134 13.963 159.59 13.7759 158.995 13.6228C158.401 13.4697 157.806 13.4017 157.194 13.4017C156.107 13.4017 155.291 13.6058 154.764 13.997C154.237 14.3882 153.965 14.9494 153.965 15.6638C153.965 16.072 154.067 16.4291 154.271 16.7013C154.475 16.9734 154.764 17.2115 155.138 17.4156C155.529 17.6197 156.005 17.8068 156.582 17.9769C156.984 18.0951 157.435 18.2133 157.929 18.343C158.146 18.3999 158.371 18.4589 158.604 18.5212C159.59 18.7933 160.491 19.0655 161.306 19.3716C162.122 19.6778 162.802 20.0519 163.362 20.5112C163.923 20.9704 164.365 21.4976 164.671 22.1439C164.977 22.7903 165.13 23.5557 165.13 24.4741C165.13 25.5456 164.926 26.4641 164.518 27.2294C164.11 27.9948 163.549 28.6071 162.853 29.0833C162.156 29.5596 161.357 29.8997 160.44 30.1208C159.539 30.342 158.587 30.444 157.585 30.444C156.056 30.444 154.543 30.2229 153.065 29.7637C151.57 29.3045 150.244 28.6751 149.055 27.8417L150.805 24.4741C150.975 24.6442 151.281 24.8653 151.739 25.1374C152.181 25.4096 152.708 25.6817 153.32 25.9538C153.932 26.2259 154.611 26.4641 155.359 26.6512C156.107 26.8383 156.871 26.9403 157.653 26.9403C159.828 26.9403 160.915 26.26 160.915 24.8823C160.915 24.4401 160.796 24.0829 160.542 23.7768C160.287 23.4706 159.947 23.2155 159.488 22.9774C159.029 22.7563 158.468 22.5522 157.823 22.3481C157.177 22.161 156.446 21.9569 155.648 21.7358C154.679 21.4636 153.83 21.1915 153.116 20.8683C152.402 20.5622 151.807 20.188 151.332 19.7628C150.856 19.3376 150.499 18.8443 150.261 18.3001C150.023 17.7388 149.904 17.0755 149.904 16.3101C149.904 15.2896 150.091 14.3881 150.482 13.5888C150.873 12.7894 151.4 12.143 152.062 11.6158C152.742 11.0885 153.524 10.6974 154.424 10.4082C155.325 10.1361 156.293 10 157.313 10C158.74 10 160.066 10.2211 161.272 10.6633C162.479 11.1055 163.532 11.6328 164.416 12.2281L162.666 15.3916Z"
          fill="#ED6C53"/>
</svg>
